<svg xmlns="http://www.w3.org/2000/svg" version="1.1" viewBox="121.31 136.97 151.69 125.86">
<path d="M0 0 C32.34585852 -0.16050697 64.6622264 0.2845778 97 1 C96 7 96 7 88 22 C67.87 22.33 47.74 22.66 27 23 C28.65 26.3 30.3 29.6 32 33 C34.1042334 33.03758423 34.1042334 33.03758423 36.25097656 33.07592773 C41.45435766 33.17008141 46.65760775 33.27028286 51.86083984 33.37231445 C54.11308732 33.41563314 56.36536699 33.45731042 58.61767578 33.49731445 C61.85459089 33.55509103 65.09134442 33.61876452 68.328125 33.68359375 C69.33554749 33.70030624 70.34296997 33.71701874 71.38092041 33.73423767 C72.32159363 33.75418289 73.26226685 33.77412811 74.23144531 33.79467773 C75.47054657 33.81799416 75.47054657 33.81799416 76.73468018 33.84178162 C78.93589488 33.99552266 80.88279793 34.39397606 83 35 C80.88523358 42.16670844 78.04532029 48.68975108 74 55 C70.87433539 56.56283231 67.5009048 56.3809046 64.0625 56.5625 C63.35287109 56.60568359 62.64324219 56.64886719 61.91210938 56.69335938 C57.67263178 56.93161726 53.45120965 57.0208362 49.20483398 57.01147461 C48.22651108 57.00981796 47.24818817 57.00816132 46.24021912 57.00645447 C45.13131065 57.00325951 45.13131065 57.00325951 44 57 C44.26816025 57.53187927 44.5363205 58.06375854 44.81260681 58.61175537 C47.65763726 64.25682337 50.4965553 69.90493708 53.33227539 75.5546875 C54.38481482 77.64984127 55.4388009 79.74426906 56.49438477 81.83789062 C61.92686752 92.61494352 67.29683477 103.41383481 72.31640625 114.390625 C72.90312355 115.6558902 72.90312355 115.6558902 73.50169373 116.94671631 C74.39767738 118.9372131 75.20825154 120.96579289 76 123 C75.67 123.66 75.34 124.32 75 125 C66.75 125 58.5 125 50 125 C43.07 111.14 36.14 97.28 29 83 C9.2 82.505 9.2 82.505 -11 82 C-11.33 83.65 -11.66 85.3 -12 87 C-12.48031053 88.33191429 -13.002953 89.64931405 -13.56640625 90.94824219 C-13.88343506 91.68540466 -14.20046387 92.42256714 -14.52709961 93.18206787 C-14.86878174 93.96245422 -15.21046387 94.74284058 -15.5625 95.546875 C-15.9138501 96.35868225 -16.2652002 97.1704895 -16.62719727 98.00689697 C-17.3679611 99.71572875 -18.11109376 101.42353537 -18.85644531 103.13037109 C-20.00107933 105.7524725 -21.13783346 108.37788325 -22.2734375 111.00390625 C-22.99433245 112.66426196 -23.71567111 114.3244251 -24.4375 115.984375 C-24.77918213 116.77285828 -25.12086426 117.56134155 -25.47290039 118.37371826 C-27.88386894 123.88386894 -27.88386894 123.88386894 -29 125 C-37.40029654 126.30349429 -45.58287789 125.88244022 -54 125 C-55.44476553 120.3902298 -54.46450204 117.96612775 -52.44921875 113.6640625 C-52.16412445 113.04539307 -51.87903015 112.42672363 -51.58529663 111.78930664 C-50.63195135 109.72842511 -49.65970755 107.67704238 -48.6875 105.625 C-48.00511265 104.15865225 -47.32407063 102.69167777 -46.64428711 101.22412109 C-45.19326322 98.09666178 -43.73473341 94.97286223 -42.27050781 91.8515625 C-40.01277549 87.03480812 -37.78031972 82.20665644 -35.5546875 77.375 C-35.18571854 76.5741095 -34.81674957 75.77321899 -34.43659973 74.94805908 C-33.68784041 73.32269379 -32.93912733 71.69730718 -32.19046021 70.07189941 C-31.05949202 67.61847474 -29.92649047 65.16600015 -28.79272461 62.71386719 C-22.92674383 50.02669111 -17.10336693 37.32039798 -11.30102539 24.60400391 C-10.68508344 23.25422043 -10.06911733 21.90444798 -9.453125 20.5546875 C-9.16175156 19.9162088 -8.87037811 19.2777301 -8.57017517 18.61990356 C-5.7318451 12.40476423 -2.86929375 6.20090677 0 0 Z M8 39 C6.49394598 42.28893003 4.99619468 45.58157446 3.5 48.875 C3.07074219 49.81214844 2.64148438 50.74929687 2.19921875 51.71484375 C1.79316406 52.61074219 1.38710937 53.50664062 0.96875 54.4296875 C0.59169922 55.25710449 0.21464844 56.08452148 -0.17382812 56.93701172 C-1.12392316 58.93906349 -1.12392316 58.93906349 -1 61 C5.27 61 11.54 61 18 61 C16.09788915 55.29366744 14.34492182 50.28372385 11.8125 44.9375 C11.28269531 43.81214844 10.75289062 42.68679687 10.20703125 41.52734375 C9.80871094 40.69332031 9.41039062 39.85929687 9 39 C8.67 39 8.34 39 8 39 Z " fill="#000000" transform="translate(176,137)"/>
</svg>